<?xml version="1.0" encoding="UTF-8" standalone="no"?>
<!-- Created with Inkscape (http://www.inkscape.org/) -->

<svg
   width="446.82898mm"
   height="295.80951mm"
   viewBox="0 0 446.82898 295.80951"
   version="1.1"
   id="svg1"
   xml:space="preserve"
   inkscape:version="1.4.4 (dcaf3e7, 2026-05-05)"
   sodipodi:docname="smoking.svg"
   xmlns:inkscape="http://www.inkscape.org/namespaces/inkscape"
   xmlns:sodipodi="http://sodipodi.sourceforge.net/DTD/sodipodi-0.dtd"
   xmlns="http://www.w3.org/2000/svg"
   xmlns:svg="http://www.w3.org/2000/svg"><sodipodi:namedview
     id="namedview1"
     pagecolor="#ffffff"
     bordercolor="#000000"
     borderopacity="0.25"
     inkscape:showpageshadow="2"
     inkscape:pageopacity="0.0"
     inkscape:pagecheckerboard="0"
     inkscape:deskcolor="#d1d1d1"
     inkscape:document-units="mm"
     inkscape:zoom="0.19041982"
     inkscape:cx="1943.075"
     inkscape:cy="617.0576"
     inkscape:window-width="1920"
     inkscape:window-height="1057"
     inkscape:window-x="1912"
     inkscape:window-y="-8"
     inkscape:window-maximized="1"
     inkscape:current-layer="layer1" /><defs
     id="defs1" /><g
     inkscape:label="Layer 1"
     inkscape:groupmode="layer"
     id="layer1"
     transform="translate(578.40208,75.891321)"><path
       style="fill:#96001e;fill-opacity:1"
       d="m -578.32708,219.58156 c -0.0693,-0.1819 -0.0953,-14.32057 -0.0579,-31.41927 l 0.0681,-31.08854 193.21197,-0.0667 193.21198,-0.0667 v 31.48596 31.48595 h -193.15408 c -154.27975,0 -193.17948,-0.0666 -193.28007,-0.33073 z m 395.16545,-31.15469 v -31.49142 l 10.64947,0.0691 10.64948,0.0692 V 188.42687 219.78 l -10.64948,0.0691 -10.64947,0.0691 z m 30.0211,31.1577 c -0.0699,-0.18356 -0.0965,-14.32358 -0.059,-31.42228 l 0.0681,-31.08854 h 10.71563 10.71562 V 188.42687 219.78 l -10.65663,0.0691 c -8.3839,0.0544 -10.68373,-0.002 -10.78372,-0.26458 z m -21.42215,-68.62862 c -3.63592,-0.94042 -6.32292,-3.06859 -7.76944,-6.15358 -0.69632,-1.48503 -0.6974,-1.49779 -0.82951,-9.82133 l -0.1323,-8.33438 -0.71449,-1.21537 c -0.39297,-0.66845 -1.10735,-1.51186 -1.5875,-1.87424 -1.99559,-1.50612 3.26049,-1.39653 -74.29488,-1.54907 -77.36815,-0.15217 -71.63316,-0.0466 -77.54572,-1.42794 -9.30967,-2.17505 -17.95723,-6.97389 -24.62997,-13.66806 -5.92523,-5.94425 -9.05075,-11.508043 -10.98573,-19.555943 -0.68569,-2.85187 -0.67696,-11.35929 0.0149,-14.55209 1.0911,-5.03503 3.15168,-10.25147 5.60324,-14.18484 0.64941,-1.04194 1.18075,-1.95587 1.18075,-2.03096 0,-0.0751 -5.08992,-0.19076 -11.31094,-0.25704 -12.42104,-0.13234 -14.0368,-0.29162 -20.80821,-2.05123 -18.4983,-4.80695 -34.04363,-17.58329 -42.81551,-35.189059 -2.91656,-5.85373 -4.79014,-11.7436806 -5.93267,-18.65041255 -0.69097,-4.17701705 -0.69658,-15.68870345 -0.01,-19.84375145 1.89341,-11.453075 6.10253,-21.333707 12.91156,-30.309089 9.14774,-12.058153 22.54316,-20.757551 37.65145,-24.452006 6.46621,-1.581192 15.5944,-2.220104 18.66993,-1.30677 4.54478,1.349653 7.76019,5.660989 7.77669,10.427239 0.0153,4.413853 -2.25471,8.036563 -6.25829,9.987705 -1.18486,0.577442 -1.91605,0.704457 -5.08789,0.883828 -7.90441,0.447004 -13.55703,1.820989 -19.44687,4.726958 -12.71194,6.271905 -21.61656,17.898894 -24.39299,31.850528 -0.78053,3.922194 -0.84303,12.0381814 -0.11953,15.5218164 0.89252,4.297451 1.96802,7.676276 3.53719,11.112501 0.87076,1.9068236 3.58764,6.2371146 5.21224,8.3074926 4.18079,5.327991 10.30401,10.14159 16.68913,13.11971 2.5979,1.2117 7.44529,2.76606 10.8624,3.48313 l 2.89593,0.60771 31.22084,0.13942 31.22083,0.13941 1.5875,0.63831 c 1.12582,0.45267 2.05257,1.10671 3.18669,2.24896 1.8546,1.86789 2.90241,3.89196 3.34076,6.45342 0.58204,3.40102 -0.97422,7.59422 -3.63139,9.78448 -1.90475,1.57006 -3.6248,2.1853 -6.8428,2.44759 -5.41214,0.44112 -8.77339,1.31819 -12.3743,3.22891 -6.43968,3.41701 -11.32599,9.53944 -13.08109,16.39025 -0.66697,2.60345 -0.39378,6.68074 0.60891,9.08767 2.97363,7.13812 9.68015,12.21561 19.26822,14.58794 1.72525,0.426883 6.77118,0.469323 73.68645,0.619753 56.3176,0.12661 72.14871,0.23344 73.28959,0.49457 2.99088,0.68458 5.22713,1.45406 7.5203,2.58769 7.38564,3.6511 12.74227,9.94349 14.76722,17.34695 0.57333,2.09615 0.59893,2.62016 0.59893,12.25692 v 10.06715 l -0.9981,2.02025 c -1.79066,3.62449 -5.04546,5.74873 -9.05606,5.91043 -1.16417,0.0469 -2.3548,0.0238 -2.64584,-0.0515 z m 29.50104,-0.19517 c -4.1144,-1.12008 -7.17666,-4.35953 -7.94352,-8.40317 -0.15918,-0.83934 -0.25856,-13.34091 -0.25856,-32.52483 0,-33.793113 0.0362,-32.876713 -1.46376,-37.013083 -2.52651,-6.96708 -7.549,-12.14565 -14.27895,-14.72268 -4.29865,-1.64605 -0.29983,-1.52458 -55.43588,-1.68388 l -50.40881,-0.14565 -1.84428,-0.90799 c -3.60905,-1.77684 -5.87463,-5.07387 -6.13922,-8.93423 -0.28793,-4.20077 1.47249,-7.66123 5.08445,-9.99449 2.02675,-1.30926 3.53677,-1.66307 7.8052,-1.82886 6.90525,-0.26821 12.17629,-1.61984 18.11012,-4.6439 1.96691,-1.0024 4.7392,-2.6273 6.16065,-3.61088 3.23967,-2.24172 8.32232,-7.314774 10.71342,-10.69319 3.38856,-4.787736 6.14927,-11.2329526 7.26095,-16.9515716 0.60707,-3.122879 0.68577,-12.2952794 0.13037,-15.1953044 -0.36602,-1.911184 -1.21986,-5.318914 -1.6242,-6.482292 -3.4988,-10.066844 -9.59782,-18.125475 -17.73256,-23.430042 -7.79029,-5.079955 -14.64386,-7.251975 -24.47395,-7.756236 -3.20847,-0.164587 -3.90786,-0.283919 -5.22622,-0.891718 -1.98826,-0.916633 -4.14259,-2.98042 -5.25789,-5.036907 -0.87354,-1.610726 -0.89294,-1.715646 -0.89138,-4.821556 0.001,-2.958023 0.0531,-3.278525 0.75551,-4.689875 1.41031,-2.833786 3.9661,-4.987813 7.01674,-5.91372 2.38074,-0.722581 10.024,-0.323095 16.03865,0.838283 10.1867,1.966966 20.41069,6.669017 28.77428,13.233402 1.05456,0.827703 3.53479,3.127027 5.51161,5.109608 11.4219,11.455167 18.04853,26.058288 19.32556,42.587771 0.95579,12.3713494 -2.31667,26.550153 -8.49556,36.809312 -2.63759,4.379346 -7.1474,10.488866 -7.97435,10.802996 -0.12769,0.0485 -0.23216,0.25687 -0.23216,0.46302 0,0.32065 3.49948,0.37483 24.21111,0.37483 20.34927,0 24.64342,0.0644 26.92136,0.40394 18.06929,2.69307 32.3683,15.31497 37.45943,33.06585 1.88729,6.5803 1.89145,6.67287 1.89032,42.068753 -0.001,33.6171 0.0333,32.68173 -1.29552,35.28093 -2.09205,4.09217 -7.64226,6.47621 -12.19296,5.23736 z"
       id="path1" /></g></svg>
